<?xml version="1.0" standalone="no"?>
<!DOCTYPE svg PUBLIC "-//W3C//DTD SVG 20010904//EN"
 "http://www.w3.org/TR/2001/REC-SVG-20010904/DTD/svg10.dtd">
<svg version="1.0" xmlns="http://www.w3.org/2000/svg"
 width="559.000000pt" height="447.000000pt" viewBox="0 0 559.000000 447.000000"
 preserveAspectRatio="xMidYMid meet">

<g transform="translate(0.000000,447.000000) scale(0.100000,-0.100000)"
fill="#000000" stroke="none">
<path d="M2981 4320 c-13 -12 -30 -19 -37 -16 -19 7 -148 -55 -214 -103 -30
-22 -71 -51 -91 -65 -20 -14 -66 -67 -102 -119 -65 -93 -79 -118 -114 -209
-10 -27 -23 -48 -30 -48 -18 0 -33 -34 -26 -59 4 -14 1 -26 -8 -32 -11 -7 -12
-12 -1 -29 9 -15 9 -20 0 -20 -8 0 -9 -3 -1 -11 15 -15 4 -58 -18 -70 -24 -12
-21 -49 5 -78 12 -13 16 -27 11 -38 -14 -35 -14 -142 1 -154 11 -9 14 -8 14 2
0 8 11 1 24 -16 32 -40 42 -27 17 21 -22 40 -29 114 -11 114 6 0 10 -14 10
-30 0 -17 9 -56 21 -88 23 -64 41 -160 33 -173 -3 -5 -15 -4 -27 2 -16 9 -13
2 11 -23 27 -29 35 -47 43 -104 12 -79 4 -196 -16 -234 -8 -15 -31 -42 -53
-61 l-39 -34 0 -94 c0 -52 3 -106 7 -122 5 -17 4 -32 -3 -39 -9 -10 -9 -11 1
-6 24 14 39 -12 36 -64 -1 -27 2 -53 8 -56 10 -7 50 25 44 35 -2 3 1 14 8 24
12 16 14 16 28 -1 28 -33 48 -72 38 -72 -5 0 -10 -4 -10 -10 0 -5 5 -10 11
-10 17 0 40 -28 29 -35 -6 -4 -8 -10 -5 -15 5 -9 44 -2 61 11 6 5 32 -6 63
-27 45 -30 60 -35 90 -31 20 4 67 11 105 17 66 10 110 28 147 60 42 36 49 39
63 34 9 -3 16 -14 16 -23 1 -12 7 -9 23 12 13 15 28 27 34 27 6 0 16 7 23 15
7 9 20 13 30 10 12 -4 22 5 36 34 10 22 22 37 26 34 9 -5 9 -4 35 84 9 35 22
62 28 62 26 -3 37 2 31 16 -10 26 43 -14 58 -44 15 -30 12 -258 -5 -376 -39
-269 -197 -453 -454 -527 -99 -28 -298 -31 -381 -6 -211 65 -349 223 -410 467
-42 171 -67 448 -44 492 14 25 5 25 -77 -7 -38 -14 -128 -43 -201 -65 -141
-41 -226 -78 -185 -79 35 0 49 -42 67 -190 9 -74 22 -169 28 -210 27 -170 5
-568 -37 -664 l-13 -31 -1 27 c-1 16 -10 33 -23 42 -31 22 -33 21 -33 -16 0
-27 -4 -34 -22 -36 -13 -2 -23 -9 -23 -15 0 -16 32 -64 53 -80 33 -24 49 -122
42 -247 -7 -131 -13 -163 -28 -153 -6 4 -7 1 -3 -6 10 -16 -2 -83 -13 -76 -11
6 -22 -35 -13 -49 12 -20 1 -61 -38 -141 -49 -101 -63 -153 -61 -235 2 -70 6
-75 60 -85 36 -6 228 -61 331 -95 30 -10 56 -23 56 -29 1 -6 2 -18 3 -27 1
-11 7 -14 17 -10 21 8 89 -10 108 -29 12 -13 82 -15 465 -15 294 0 451 3 451
10 0 6 -10 11 -22 11 -13 1 -30 2 -38 3 -8 1 -20 4 -27 9 -6 4 -15 2 -18 -3
-9 -14 -57 -4 -105 21 -25 13 -51 17 -91 15 -54 -3 -56 -2 -51 20 3 17 0 24
-11 24 -9 0 -19 -5 -22 -11 -4 -6 -13 -8 -21 -5 -8 3 -14 1 -14 -4 0 -6 -5
-10 -11 -10 -7 0 -9 10 -5 28 5 20 4 23 -4 12 -8 -13 -10 -13 -10 3 0 9 -5 17
-11 17 -6 0 -9 -6 -6 -14 3 -8 0 -17 -8 -20 -9 -3 -12 0 -8 10 3 9 -1 14 -11
14 -9 0 -19 -7 -22 -15 -4 -8 -10 -15 -15 -15 -5 0 -9 7 -9 15 0 17 -5 18 -28
6 -11 -6 -31 -4 -57 5 -22 7 -48 14 -57 14 -10 0 -18 4 -18 10 0 5 -6 7 -14 4
-7 -3 -28 7 -45 22 -24 20 -32 33 -28 51 4 24 -7 31 -18 12 -4 -6 -13 -8 -20
-5 -7 2 -17 0 -23 -6 -8 -8 -13 -7 -18 6 -6 16 -8 16 -25 1 -13 -13 -22 -14
-36 -6 -12 7 -13 10 -4 11 11 0 11 3 1 15 -7 8 -17 12 -23 8 -6 -4 -8 0 -4 9
3 9 -1 24 -8 35 -13 17 -14 17 -9 -2 3 -11 -2 -29 -10 -40 -15 -20 -15 -20
-16 2 0 12 -5 25 -10 28 -6 4 -8 10 -6 14 3 4 1 13 -5 21 -7 12 -9 9 -9 -10 0
-38 -19 -10 -22 33 -2 28 -7 37 -20 37 -10 0 -18 7 -18 15 0 19 -7 19 -28 -1
-11 -11 -15 -30 -13 -58 l2 -41 -26 30 -26 30 6 -27 c6 -31 -6 -36 -29 -12
-15 14 -16 14 -16 -2 0 -16 -1 -16 -19 0 -13 12 -21 14 -26 6 -3 -5 -11 -8
-16 -4 -6 4 -3 14 7 25 14 16 15 22 4 32 -10 9 -11 9 -6 0 4 -8 1 -13 -8 -13
-9 0 -16 8 -16 18 -1 16 -1 16 -11 0 -12 -22 -41 -24 -33 -3 4 8 1 15 -6 15
-10 0 -9 4 1 16 10 13 10 17 -2 25 -25 15 -39 10 -39 -16 0 -14 4 -25 10 -25
5 0 7 -7 3 -16 -5 -14 -9 -13 -27 5 -14 15 -17 24 -10 29 14 9 13 104 -1 114
-6 5 -3 8 7 8 9 0 20 9 23 20 9 29 41 47 118 64 87 20 168 20 215 0 54 -23
167 -54 199 -54 16 0 75 -15 133 -34 117 -37 319 -88 425 -106 39 -7 102 -23
141 -36 87 -29 245 -66 252 -60 2 3 13 1 22 -4 10 -5 66 -12 126 -15 59 -4
116 -11 126 -16 12 -6 18 -6 18 1 0 5 11 10 25 10 14 0 25 -5 25 -11 0 -6 8
-8 19 -4 10 3 40 1 66 -5 38 -8 50 -8 56 2 13 20 -11 26 -73 19 -43 -5 -59 -4
-62 6 -3 7 -16 13 -29 13 -13 0 -27 4 -33 10 -6 6 -19 4 -38 -5 -44 -23 -26 6
20 32 37 21 45 21 173 13 74 -5 138 -13 144 -19 5 -5 7 -17 5 -27 -2 -14 -14
-20 -46 -22 -28 -2 -42 -7 -39 -15 2 -7 14 -11 25 -9 18 3 22 -2 22 -22 0 -17
6 -26 16 -26 11 0 13 6 9 19 -5 17 0 21 29 26 19 4 40 4 47 0 6 -5 26 -9 43
-11 108 -11 136 -16 176 -27 25 -7 68 -10 95 -7 45 4 48 6 29 17 -11 6 -56 15
-100 20 -43 4 -69 9 -57 11 12 2 27 10 34 18 11 13 8 14 -17 9 -16 -4 -34 -8
-41 -10 -13 -4 -23 17 -23 51 0 13 -5 24 -11 24 -7 0 -9 9 -6 21 4 16 3 18 -9
8 -11 -9 -14 -8 -14 4 0 8 7 20 15 27 9 7 12 16 8 19 -16 12 -33 51 -23 51 7
0 8 6 0 19 -14 27 -13 41 5 41 17 0 20 16 5 25 -6 4 -6 15 0 31 8 19 6 26 -5
30 -8 4 -15 12 -15 20 0 17 17 18 23 2 3 -8 6 -6 6 4 1 10 -8 26 -19 36 -17
15 -18 23 -10 53 12 42 13 60 1 56 -5 -1 -9 3 -9 8 0 6 4 9 9 8 5 -2 9 4 9 12
0 8 -7 15 -15 15 -18 0 -21 70 -3 88 9 9 9 21 0 50 -15 48 -15 65 -2 57 6 -3
10 3 10 14 0 14 9 23 26 27 17 4 23 11 20 21 -4 9 1 17 13 20 11 3 22 11 25
19 3 7 12 11 20 8 8 -3 17 -1 21 5 3 6 -2 11 -12 11 -13 0 -19 9 -20 30 -1 18
2 28 7 25 6 -4 10 -2 10 4 0 5 -9 13 -20 16 -22 7 -27 25 -8 25 7 0 2 7 -10
16 -16 11 -27 13 -35 5 -20 -16 -34 0 -42 49 -4 24 -13 49 -20 55 -7 5 -21 44
-30 85 -15 64 -17 131 -17 442 l0 368 -32 19 c-46 27 -272 142 -341 173 -57
25 -105 60 -105 76 0 4 7 17 15 29 14 20 13 22 -18 34 -17 7 -35 14 -39 16 -3
2 -5 -13 -3 -34 3 -40 -9 -73 -26 -73 -6 0 -7 5 -4 11 4 6 -21 -10 -55 -35
-64 -48 -96 -57 -106 -31 -5 12 -17 14 -58 9 -41 -4 -58 -1 -86 16 -19 11 -50
27 -67 35 -18 9 -33 20 -33 26 0 8 -5 7 -15 -1 -8 -7 -15 -9 -15 -4 0 5 -4 3
-9 -4 -6 -10 -16 -5 -39 19 -18 18 -32 36 -32 41 0 4 -7 8 -15 8 -8 0 -15 5
-15 10 0 6 -6 10 -14 10 -21 0 -23 5 -37 120 -11 96 -15 107 -42 132 -16 15
-26 31 -22 37 9 16 26 13 41 -6 7 -10 14 -13 14 -7 0 7 15 9 40 7 22 -2 40 0
40 4 0 4 13 14 30 21 16 7 49 37 72 65 30 36 35 47 18 34 -14 -9 -41 -29 -61
-42 -34 -24 -69 -26 -69 -3 0 5 -16 26 -35 46 -19 20 -35 42 -35 49 0 7 -8 17
-18 22 -13 7 -19 22 -20 48 -1 21 -6 60 -11 87 -5 27 -7 55 -4 63 3 7 0 13 -6
13 -6 0 -11 14 -11 30 0 17 5 30 10 30 6 0 10 9 10 19 0 28 19 36 35 15 17
-23 18 -19 6 22 -5 18 -5 37 0 45 7 11 9 9 9 -8 0 -12 4 -24 9 -27 15 -9 22
-72 12 -99 -11 -29 3 -47 42 -51 13 -1 38 -12 54 -24 43 -31 52 -27 19 7 -23
24 -25 29 -11 35 9 3 34 3 56 0 24 -4 44 -2 53 5 12 10 21 8 44 -9 15 -11 38
-22 50 -23 12 -1 22 -7 22 -13 0 -7 6 -14 13 -17 10 -3 10 -9 0 -26 -7 -11
-13 -28 -13 -36 0 -8 -4 -15 -10 -15 -5 0 -10 -7 -10 -15 0 -9 -10 -30 -22
-47 -17 -22 -19 -32 -10 -35 16 -6 15 -21 -3 -39 -13 -14 -15 -13 -15 3 -1 11
-9 3 -21 -21 -18 -33 -19 -42 -8 -62 7 -13 18 -24 25 -24 7 0 17 -6 21 -13 19
-30 142 -52 157 -28 3 5 22 12 41 15 35 7 71 46 41 46 -8 0 -17 6 -19 13 -4 9
-8 9 -15 -2 -16 -22 -100 -7 -132 24 -28 27 -39 70 -15 62 20 -8 55 96 55 166
0 26 5 47 10 47 7 0 7 6 0 19 -15 30 -12 38 18 49 l27 10 -30 7 c-59 14 -65
17 -60 26 4 5 0 10 -7 11 -7 0 -18 2 -24 2 -6 1 -19 9 -28 19 -20 19 -31 23
-20 6 4 -8 -1 -9 -17 -3 -13 4 -35 9 -49 10 -14 1 -24 7 -23 13 2 6 -6 11 -16
11 -11 0 -23 5 -26 11 -5 7 -15 5 -31 -6 -22 -14 -27 -14 -55 1 -29 15 -31 18
-25 57 4 23 19 57 33 76 23 30 27 45 29 118 2 53 -1 83 -8 83 -7 0 -7 4 0 13
6 7 9 22 6 34 -3 11 1 27 10 36 18 17 21 32 6 22 -13 -8 -13 -5 1 36 7 19 21
42 33 51 11 10 16 18 10 18 -7 0 -15 8 -19 18 -5 14 -4 15 6 5 19 -19 32 -16
26 7 -3 13 0 20 9 21 58 5 75 3 79 -12 5 -16 14 -19 127 -33 21 -3 37 -2 35 2
-3 9 7 12 33 12 14 0 20 -7 21 -22 l0 -23 16 23 c21 30 35 28 27 -5 -4 -21 -3
-24 5 -13 6 8 18 16 28 16 10 1 26 5 36 9 12 5 17 2 17 -10 0 -14 6 -16 35
-11 22 5 35 3 35 -4 0 -7 6 -8 19 0 13 6 22 7 26 0 3 -5 12 -7 20 -3 8 3 15 0
15 -6 0 -6 5 -11 11 -11 8 0 7 5 -1 15 -15 18 -9 28 11 20 20 -9 89 -100 89
-119 0 -9 5 -16 10 -16 16 0 33 -51 20 -64 -7 -7 -10 -6 -10 4 0 7 -3 10 -7 6
-4 -4 3 -16 17 -27 15 -11 18 -17 8 -13 -14 5 -18 0 -18 -22 0 -22 3 -25 12
-16 15 15 38 16 38 1 0 -5 -4 -8 -9 -4 -18 10 -30 -29 -16 -48 13 -18 13 -18
17 0 3 13 5 11 10 -9 3 -15 1 -25 -3 -22 -5 3 -9 -1 -9 -8 -1 -8 -6 -6 -15 6
-17 23 -28 16 -33 -22 -2 -14 -8 -32 -14 -39 -14 -17 2 -16 26 2 16 12 17 17
6 30 -9 11 -9 15 -1 15 23 0 30 -44 11 -65 -23 -27 -28 -135 -6 -135 10 0 17
-16 21 -53 4 -29 5 -60 4 -67 -2 -8 3 -26 10 -40 8 -14 10 -25 4 -27 -5 -2 -7
-17 -5 -34 3 -19 0 -34 -8 -39 -9 -6 -9 -13 -2 -26 10 -18 11 -17 21 9 6 16
11 41 11 56 0 24 4 29 26 29 49 0 111 91 94 137 -7 20 -6 32 6 51 12 18 13 28
5 37 -8 10 -5 23 11 53 27 49 28 115 0 244 -23 113 -39 141 -156 272 -110 122
-187 177 -331 233 -36 14 -109 27 -170 31 -33 2 -73 6 -90 9 -21 4 -37 -1 -54
-15z m-178 -300 c-3 -11 -9 -20 -14 -20 -14 0 -11 28 4 33 6 3 13 6 14 6 0 1
-1 -8 -4 -19z m-92 -463 c-10 -9 -11 -8 -5 6 3 10 9 15 12 12 3 -3 0 -11 -7
-18z m124 -104 c5 -21 8 -24 16 -12 7 11 9 11 9 -4 0 -10 4 -16 9 -12 5 3 13
0 16 -6 4 -6 17 -14 29 -19 15 -6 0 -9 -51 -9 -62 -1 -74 2 -83 19 -12 22 -7
25 20 10 13 -7 19 -6 24 6 3 8 2 13 -2 10 -4 -2 -8 7 -8 20 -2 33 12 30 21 -3z
m-289 -51 c-18 -18 -29 -12 -20 11 3 9 12 13 21 10 13 -5 13 -8 -1 -21z m67
-523 c-8 -29 -13 -23 -13 14 0 22 3 28 9 18 5 -7 6 -22 4 -32z m1327 -2519 c0
-5 -2 -10 -4 -10 -3 0 -8 5 -11 10 -3 6 -1 10 4 10 6 0 11 -4 11 -10z m-1966
-25 c3 -8 3 -22 0 -30 -8 -21 -32 4 -26 27 5 22 18 23 26 3z"/>
<path d="M3515 3890 c3 -5 8 -10 11 -10 2 0 4 5 4 10 0 6 -5 10 -11 10 -5 0
-7 -4 -4 -10z"/>
<path d="M2631 3414 c0 -11 3 -14 6 -6 3 7 2 16 -1 19 -3 4 -6 -2 -5 -13z"/>
<path d="M3295 3410 c-3 -5 -15 -10 -25 -10 -10 0 -20 -6 -23 -12 -4 -10 -7
-10 -18 0 -18 16 -30 15 -23 -2 3 -8 1 -22 -4 -32 -12 -22 -4 -54 14 -54 8 0
14 -4 14 -10 0 -15 68 -12 73 3 3 8 11 5 26 -10 25 -27 40 -28 67 -9 17 13 22
12 51 -10 53 -40 75 -25 29 21 -15 15 -46 28 -87 36 -75 15 -59 27 39 28 43 1
62 -3 62 -12 0 -7 9 -18 20 -24 16 -11 21 -10 30 6 13 26 13 51 -1 51 -6 0
-18 9 -27 20 -18 22 -22 22 -109 18 -29 -2 -53 0 -53 4 0 12 -48 10 -55 -2z"/>
<path d="M3547 3085 c-15 -36 -27 -75 -27 -86 0 -11 -4 -28 -9 -37 -5 -9 -11
-39 -15 -67 l-7 -50 26 49 c14 27 34 78 44 115 11 36 26 79 35 96 12 22 12 31
3 37 -20 13 -23 10 -50 -57z"/>
<path d="M2850 2960 c-6 -11 -17 -20 -25 -20 -8 0 -15 -4 -15 -9 0 -4 -12 -20
-26 -35 -15 -14 -21 -26 -15 -26 7 0 9 -4 6 -10 -3 -5 3 -10 13 -10 20 0 82
-80 82 -105 0 -7 10 -17 23 -23 12 -6 17 -11 10 -11 -8 -1 -8 -7 0 -26 14 -29
82 -56 136 -54 20 1 27 3 16 5 -56 12 -135 38 -135 46 0 4 16 8 36 8 20 0 33
-4 29 -10 -3 -6 1 -7 9 -4 9 3 14 10 11 14 -3 5 0 10 6 12 14 5 0 38 -16 38
-7 0 -15 -5 -17 -12 -3 -7 -27 9 -57 39 l-53 50 57 -9 c32 -5 62 -11 66 -14 5
-3 45 -11 90 -19 45 -8 84 -17 86 -19 3 -3 16 -1 29 4 17 7 32 5 53 -8 24 -13
33 -14 43 -4 10 10 8 15 -10 28 -12 8 -22 22 -22 30 0 18 -1 18 -50 -2 -36
-15 -44 -15 -87 0 -25 9 -56 16 -67 16 -12 0 -52 13 -91 28 -52 22 -71 34 -73
50 -2 12 -9 19 -16 16 -18 -7 -28 23 -16 47 6 10 8 19 6 19 -3 0 -10 -9 -16
-20z"/>
<path d="M3306 2891 c-3 -4 2 -25 12 -45 14 -27 21 -33 29 -25 9 9 8 19 -2 40
-17 32 -31 43 -39 30z"/>
<path d="M3055 2711 c-14 -24 66 -41 95 -20 11 8 6 9 -22 6 -26 -4 -38 -1 -42
9 -6 16 -22 19 -31 5z"/>
<path d="M1119 2103 c-1 -5 -1 -11 0 -15 0 -5 -5 -8 -11 -8 -31 0 -105 -150
-146 -298 -27 -95 -27 -102 -24 -352 2 -295 -4 -355 -61 -580 l-42 -165 1
-210 c1 -135 7 -252 18 -328 9 -65 16 -125 16 -133 0 -11 14 -14 59 -14 58 0
60 1 63 28 2 15 8 26 15 25 17 -4 22 21 7 35 -12 10 -14 10 -14 -3 0 -8 -9
-15 -19 -15 -17 0 -19 6 -17 53 2 28 7 70 11 91 6 32 5 37 -6 31 -12 -8 -12
-6 0 8 12 15 11 17 -5 18 -11 1 -22 1 -26 0 -5 0 -8 4 -8 9 0 15 44 30 51 18
9 -14 15 1 18 43 1 21 -2 40 -8 44 -14 8 -14 52 -1 60 15 9 12 45 -3 45 -13 0
-41 69 -32 79 3 2 5 -1 5 -7 0 -7 5 -12 10 -12 7 0 6 8 -2 23 -17 32 -19 89
-1 83 7 -3 13 -4 13 -3 0 1 -4 17 -9 35 -8 25 -7 32 5 32 8 0 14 7 14 16 0 10
-6 14 -15 11 -11 -5 -12 -1 -4 19 5 14 7 29 4 34 -8 13 6 40 21 40 17 0 18 22
3 37 -7 7 -8 17 -3 25 12 19 13 35 4 68 -5 18 -5 32 1 35 5 4 7 19 4 35 -4 23
-2 28 10 24 9 -4 15 0 15 9 0 8 -6 18 -12 20 -8 3 -6 6 5 6 16 1 21 11 18 39
-1 7 6 15 16 19 10 4 21 11 26 17 5 7 10 6 17 -4 8 -12 10 -12 10 -1 0 11 3
11 16 0 13 -10 17 -10 26 2 7 11 11 11 15 2 6 -17 51 -6 77 19 17 16 18 18 3
18 -9 0 -17 5 -17 10 0 6 5 10 10 10 22 0 8 26 -20 37 -20 8 -30 18 -30 32 0
12 5 21 12 21 17 0 3 11 -18 14 -27 4 -43 34 -24 46 13 9 11 13 -10 30 -18 14
-20 20 -10 20 9 0 21 -5 27 -11 7 -7 12 -5 17 6 4 13 2 16 -9 11 -11 -4 -15 2
-16 22 0 15 -3 21 -6 15 -9 -25 -25 -13 -19 13 5 18 1 33 -11 47 -10 11 -12
17 -5 13 18 -11 15 29 -4 45 -11 9 -14 22 -10 43 7 34 7 38 2 81 -1 17 -8 31
-14 31 -7 1 -16 2 -21 3 -12 1 -2 41 10 41 5 0 9 -4 9 -10 0 -5 4 -10 10 -10
5 0 9 11 8 25 -2 23 -18 37 -18 15 0 -5 -5 -10 -11 -10 -11 0 -2 41 11 50 3 3
5 34 4 70 -2 48 2 70 13 83 15 15 15 17 0 17 -23 0 -21 11 8 39 25 23 33 51
15 51 -5 0 -11 -3 -11 -7z m16 -903 c3 -5 -1 -10 -10 -10 -9 0 -13 5 -10 10 3
6 8 10 10 10 2 0 7 -4 10 -10z m-193 -882 c-7 -7 -12 -8 -12 -2 0 14 12 26 19
19 2 -3 -1 -11 -7 -17z"/>
<path d="M4116 2074 c-5 -12 -2 -15 10 -10 8 3 23 6 32 6 15 0 15 2 2 10 -22
14 -37 12 -44 -6z"/>
<path d="M2665 1907 c-8 -42 -3 -53 17 -41 7 5 21 7 31 6 9 -2 17 2 17 7 0 6
-5 11 -11 11 -13 0 -34 20 -41 40 -3 9 -9 -1 -13 -23z"/>
<path d="M4460 1881 c0 -6 4 -13 10 -16 6 -3 7 1 4 9 -7 18 -14 21 -14 7z"/>
<path d="M2625 1860 c3 -5 11 -10 16 -10 6 0 7 5 4 10 -3 6 -11 10 -16 10 -6
0 -7 -4 -4 -10z"/>
<path d="M1190 1800 c0 -5 5 -10 10 -10 6 0 10 5 10 10 0 6 -4 10 -10 10 -5 0
-10 -4 -10 -10z"/>
<path d="M4510 1761 c0 -6 4 -13 10 -16 6 -3 7 1 4 9 -7 18 -14 21 -14 7z"/>
<path d="M4525 1683 c2 -21 5 -40 6 -43 1 -3 1 -9 0 -14 -1 -5 4 -13 11 -18
10 -8 10 -11 1 -15 -15 -5 -18 -33 -4 -33 18 0 28 -99 17 -169 -5 -29 -4 -32
9 -21 10 8 15 9 15 2 0 -6 -4 -13 -10 -17 -5 -3 -9 -18 -10 -33 0 -15 -2 -43
-4 -62 -2 -19 -4 -41 -5 -48 0 -7 -5 -10 -11 -7 -5 3 -9 -2 -8 -12 1 -10 -2
-33 -7 -51 -5 -24 -12 -31 -23 -27 -12 4 -12 3 -3 -9 9 -11 9 -19 0 -33 -9
-16 -7 -27 10 -61 12 -23 19 -53 17 -67 -3 -13 0 -27 5 -30 5 -4 9 19 9 53 0
33 9 102 19 153 29 145 34 228 21 344 -7 58 -17 105 -22 105 -5 0 -7 4 -3 10
8 12 -16 140 -26 140 -5 0 -6 -17 -4 -37z"/>
<path d="M1145 1640 c-3 -5 -1 -10 4 -10 6 0 11 5 11 10 0 6 -2 10 -4 10 -3 0
-8 -4 -11 -10z"/>
<path d="M1420 1320 c0 -5 4 -10 9 -10 6 0 13 5 16 10 3 6 -1 10 -9 10 -9 0
-16 -4 -16 -10z"/>
<path d="M1457 1276 c-5 -15 -6 -31 -3 -34 8 -8 18 25 14 45 -3 13 -6 10 -11
-11z"/>
<path d="M1409 1283 c-1 -4 -1 -11 -1 -14 1 -4 -8 -5 -18 -2 -11 3 -20 1 -20
-5 0 -5 10 -12 22 -16 17 -4 20 -8 11 -17 -6 -6 -9 -18 -6 -26 5 -11 7 -12 14
-2 10 16 39 -5 40 -30 0 -13 2 -14 6 -1 3 8 11 18 17 22 7 5 4 8 -6 8 -10 0
-18 7 -18 15 0 8 -5 15 -10 15 -6 0 -9 12 -8 26 3 23 -20 50 -23 27z"/>
<path d="M1475 1220 c3 -5 13 -10 21 -10 8 0 14 5 14 10 0 6 -9 10 -21 10 -11
0 -17 -4 -14 -10z"/>
<path d="M4080 1220 c0 -5 10 -10 23 -10 18 0 19 2 7 10 -19 13 -30 13 -30 0z"/>
<path d="M1264 1192 c-6 -4 -13 -17 -17 -30 -4 -18 0 -25 21 -33 14 -5 32 -7
40 -4 9 3 12 0 9 -9 -6 -16 30 -30 39 -15 7 12 -20 39 -40 39 -9 0 -22 13 -28
30 -8 18 -17 27 -24 22z m16 -42 c0 -5 -4 -10 -10 -10 -5 0 -10 5 -10 10 0 6
5 10 10 10 6 0 10 -4 10 -10z"/>
<path d="M1360 1190 c0 -5 5 -10 10 -10 6 0 10 5 10 10 0 6 -4 10 -10 10 -5 0
-10 -4 -10 -10z"/>
<path d="M3900 1050 c0 -5 7 -10 15 -10 8 0 15 5 15 10 0 6 -7 10 -15 10 -8 0
-15 -4 -15 -10z"/>
<path d="M1165 969 c-4 -6 -5 -13 -2 -16 7 -7 27 6 27 18 0 12 -17 12 -25 -2z"/>
<path d="M4541 874 c0 -11 3 -14 6 -6 3 7 2 16 -1 19 -3 4 -6 -2 -5 -13z"/>
<path d="M4536 792 c-3 -6 -2 -13 4 -17 15 -10 12 -21 -15 -53 -14 -17 -25
-32 -25 -34 0 -3 11 -17 25 -32 14 -15 25 -36 25 -47 0 -10 5 -19 11 -19 8 0
10 26 4 93 -7 93 -16 129 -29 109z"/>
<path d="M1389 608 c-8 -26 -3 -49 13 -54 15 -5 17 -9 7 -20 -7 -9 -20 -12
-32 -8 -13 4 -17 2 -13 -5 4 -6 14 -11 22 -11 8 0 14 -4 14 -9 0 -13 91 -73
98 -66 4 3 0 10 -7 14 -7 5 -11 16 -9 25 2 10 17 -5 43 -45 22 -33 41 -56 43
-50 2 6 -8 26 -23 45 -19 25 -25 42 -20 58 4 15 3 18 -3 10 -6 -9 -12 -6 -22
14 -15 27 -48 50 -57 40 -4 -3 1 -14 10 -24 10 -10 14 -22 11 -25 -10 -10 -34
41 -27 58 3 8 0 15 -7 15 -6 0 -9 4 -6 8 2 4 -4 13 -15 20 -10 7 -19 11 -20
10z"/>
<path d="M4568 555 c-4 -16 -2 -35 4 -42 5 -7 6 -18 2 -25 -5 -9 -4 -10 4 -3
8 7 9 25 4 55 -8 43 -8 44 -14 15z"/>
<path d="M1490 550 c0 -6 7 -10 15 -10 8 0 15 2 15 4 0 2 -7 6 -15 10 -8 3
-15 1 -15 -4z"/>
<path d="M4575 440 c-3 -5 -1 -10 5 -10 6 0 9 -8 6 -17 -3 -10 -1 -25 4 -33 7
-11 10 -5 10 22 0 37 -13 57 -25 38z"/>
<path d="M1740 420 c0 -5 5 -10 10 -10 6 0 10 5 10 10 0 6 -4 10 -10 10 -5 0
-10 -4 -10 -10z"/>
<path d="M3970 341 c0 -12 6 -21 15 -21 8 0 15 3 15 6 0 3 -7 12 -15 20 -13
14 -15 13 -15 -5z"/>
<path d="M4588 338 c-3 -7 -5 -15 -5 -18 1 -16 -26 -50 -35 -44 -7 5 -9 -4 -6
-25 3 -19 -1 -36 -9 -42 -15 -13 -18 -53 -3 -44 6 3 10 0 11 -7 0 -7 5 -2 10
12 14 34 49 173 45 178 -2 1 -6 -3 -8 -10z"/>
<path d="M2121 326 c-16 -19 -11 -29 8 -17 7 5 12 14 9 21 -3 9 -8 7 -17 -4z"/>
<path d="M3540 332 c0 -5 7 -9 15 -9 8 0 12 4 9 9 -3 4 -9 8 -15 8 -5 0 -9 -4
-9 -8z"/>
<path d="M1440 280 c8 -5 20 -10 25 -10 6 0 3 5 -5 10 -8 5 -19 10 -25 10 -5
0 -3 -5 5 -10z"/>
<path d="M3760 271 c0 -6 5 -13 10 -16 6 -3 10 1 10 9 0 9 -4 16 -10 16 -5 0
-10 -4 -10 -9z"/>
<path d="M1480 266 c0 -2 7 -7 16 -10 8 -3 12 -2 9 4 -6 10 -25 14 -25 6z"/>
<path d="M2535 220 c-4 -6 3 -10 14 -10 25 0 27 6 6 13 -8 4 -17 2 -20 -3z"/>
<path d="M1062 171 c-8 -5 -12 -16 -10 -25 2 -12 6 -10 15 9 6 14 10 25 10 25
-1 0 -8 -4 -15 -9z"/>
<path d="M1078 121 c-29 -17 -39 -49 -29 -90 7 -25 9 -26 96 -28 84 -1 88 0
68 15 -11 10 -26 26 -32 37 -11 19 -12 19 -6 -2 5 -18 3 -22 -9 -17 -9 3 -16
10 -16 15 0 5 -6 9 -13 9 -8 0 -14 6 -15 13 0 6 -4 23 -9 38 -8 24 -9 24 -35
10z"/>
<path d="M4418 118 c2 -10 6 -18 7 -18 1 0 5 8 7 18 3 11 0 19 -7 19 -7 0 -10
-8 -7 -19z"/>
<path d="M4516 118 c-12 -59 -15 -118 -6 -118 6 0 10 8 11 18 0 9 2 26 4 37 2
11 7 35 10 53 3 19 2 32 -4 32 -6 0 -13 -10 -15 -22z"/>
<path d="M1021 114 c0 -11 3 -14 6 -6 3 7 2 16 -1 19 -3 4 -6 -2 -5 -13z"/>
<path d="M4391 78 c-6 -16 -18 -28 -28 -28 -18 0 -49 -37 -39 -47 3 -3 12 0
21 7 10 8 15 9 15 1 0 -20 29 -11 36 12 4 12 11 25 17 29 8 4 7 14 0 30 l-11
23 -11 -27z"/>
<path d="M1240 10 c0 -5 5 -10 10 -10 6 0 10 5 10 10 0 6 -4 10 -10 10 -5 0
-10 -4 -10 -10z"/>
<path d="M3070 10 c0 -5 10 -10 23 -10 18 0 19 2 7 10 -19 13 -30 13 -30 0z"/>
<path d="M4268 3 c7 -3 16 -2 19 1 4 3 -2 6 -13 5 -11 0 -14 -3 -6 -6z"/>
</g>
</svg>
